<svg xmlns="http://www.w3.org/2000/svg" viewBox="0 0 256 256" width="256" height="256">
  <defs>
    <linearGradient id="bg" x1="0" y1="0" x2="1" y2="1">
      <stop offset="0" stop-color="#1a1230"/>
      <stop offset="1" stop-color="#0f0a1e"/>
    </linearGradient>
    <radialGradient id="glow" cx="0.5" cy="0.55" r="0.5">
      <stop offset="0" stop-color="#fbbf24" stop-opacity="0.45"/>
      <stop offset="1" stop-color="#fbbf24" stop-opacity="0"/>
    </radialGradient>
    <linearGradient id="gold" x1="0" y1="0" x2="0" y2="1">
      <stop offset="0" stop-color="#fcd34d"/>
      <stop offset="1" stop-color="#f59e0b"/>
    </linearGradient>
  </defs>
  <rect width="256" height="256" rx="56" fill="url(#bg)"/>
  <ellipse cx="128" cy="150" rx="96" ry="72" fill="url(#glow)"/>
  <g transform="translate(35 44) scale(3)" fill="url(#gold)">
    <path d="M7 21c-2-4 2-6 .5-10C10.5 14 10.5 18 9 20z"/>
    <path d="M20 35C13 32 8 28 6 22l4-1.5c2 5.5 6 9.5 12 12.5z"/>
    <path d="M19 45c-7 0-9-7-4-11 6-5 16-7 26-5 9 2 13 6 12 11-1 5-7 7-14 7H23c-1.5 0-3-.8-4-2z"/>
    <path d="M27 29c3-5 11-5 14 0z"/>
    <circle cx="34" cy="23" r="2.6"/>
    <path d="M53 35c7 1 9 8 3 12l-2.2-2.6c2.6-1.8 1.6-4.8-1.8-5.4z"/>
    <path d="M24 47h16l-3 6H27z"/>
  </g>
</svg>
