<svg xmlns="http://www.w3.org/2000/svg" viewBox="0 0 24 24" fill="#a7aaad">
  <!-- lid knob -->
  <circle cx="11" cy="6.1" r="1.35"/>
  <!-- body + spout -->
  <path d="M4.4 15.1c0-2.4 2.9-4.1 6.6-4.1 1.1 0 2.2.15 3.15.44l3.15-1.95c.5-.31 1.13-.15 1.42.35.29.5.12 1.12-.38 1.42l-2.25 1.38c1.3.75 2.11 1.74 2.11 2.83 0 2.34-3.42 3.66-6.7 3.66S4.4 17.45 4.4 15.1z"/>
  <!-- handle -->
  <path d="M17.9 12.5c1.75.22 2.95 1.25 2.95 2.66 0 1.02-.62 1.86-1.66 2.36l-.52-1.34c.43-.26.66-.61.66-1.02 0-.71-.72-1.24-1.74-1.4z"/>
  <!-- base -->
  <rect x="7.9" y="19.1" width="6.7" height="1.45" rx="0.72"/>
</svg>
