<svg xmlns="http://www.w3.org/2000/svg" viewBox="0 0 64 64" fill="#a7aaad">
  <!-- flame above the spout -->
  <path d="M7 21c-2-4 2-6 .5-10C10.5 14 10.5 18 9 20z"/>
  <!-- spout (left, rising) -->
  <path d="M20 35C13 32 8 28 6 22l4-1.5c2 5.5 6 9.5 12 12.5z"/>
  <!-- body (bulbous vessel) -->
  <path d="M19 45c-7 0-9-7-4-11 6-5 16-7 26-5 9 2 13 6 12 11-1 5-7 7-14 7H23c-1.5 0-3-.8-4-2z"/>
  <!-- lid dome + knob -->
  <path d="M27 29c3-5 11-5 14 0z"/>
  <circle cx="34" cy="23" r="2.6"/>
  <!-- handle (right curl) -->
  <path d="M53 35c7 1 9 8 3 12l-2.2-2.6c2.6-1.8 1.6-4.8-1.8-5.4z"/>
  <!-- foot -->
  <path d="M24 47h16l-3 6H27z"/>
</svg>
